<?xml version="1.0" encoding="UTF-8" standalone="no"?>
<svg
   xmlns:dc="http://purl.org/dc/elements/1.1/"
   xmlns:cc="http://creativecommons.org/ns#"
   xmlns:rdf="http://www.w3.org/1999/02/22-rdf-syntax-ns#"
   xmlns:svg="http://www.w3.org/2000/svg"
   xmlns="http://www.w3.org/2000/svg"
   xmlns:sodipodi="http://sodipodi.sourceforge.net/DTD/sodipodi-0.dtd"
   xmlns:inkscape="http://www.inkscape.org/namespaces/inkscape"
   width="210mm"
   height="297mm"
   viewBox="0 0 210 297"
   version="1.1"
   id="svg8"
   inkscape:version="1.0.1 (3bc2e813f5, 2020-09-07)"
   sodipodi:docname="Speakr logo simplified.svg">
  <defs
     id="defs2" />
  <sodipodi:namedview
     id="base"
     pagecolor="#ffffff"
     bordercolor="#666666"
     borderopacity="1.0"
     inkscape:pageopacity="0.0"
     inkscape:pageshadow="2"
     inkscape:zoom="0.7"
     inkscape:cx="400"
     inkscape:cy="362.0364"
     inkscape:document-units="mm"
     inkscape:current-layer="layer2"
     inkscape:document-rotation="0"
     showgrid="false"
     inkscape:window-width="1366"
     inkscape:window-height="705"
     inkscape:window-x="-8"
     inkscape:window-y="-8"
     inkscape:window-maximized="1" />
  <metadata
     id="metadata5">
    <rdf:RDF>
      <cc:Work
         rdf:about="">
        <dc:format>image/svg+xml</dc:format>
        <dc:type
           rdf:resource="http://purl.org/dc/dcmitype/StillImage" />
        <dc:title></dc:title>
      </cc:Work>
    </rdf:RDF>
  </metadata>
  <g
     inkscape:label="circle"
     inkscape:groupmode="layer"
     id="layer1">
    <circle
       style="fill:#a0d8ff;stroke:#ffffff;stroke-width:2.5;stroke-linejoin:round"
       id="path835"
       cx="98.273811"
       cy="100.54166"
       r="89.958336" />
  </g>
  <g
     inkscape:groupmode="layer"
     id="layer2"
     inkscape:label="letters">
    <text
       xml:space="preserve"
       style="font-style:normal;font-weight:normal;font-size:67.7333px;line-height:1.25;font-family:sans-serif;fill:#000000;fill-opacity:1;stroke:#0000ff;stroke-width:1;stroke-miterlimit:4;stroke-dasharray:none;stroke-opacity:1"
       x="58.208332"
       y="113.39285"
       id="text840"><tspan
         sodipodi:role="line"
         id="tspan838"
         x="58.208332"
         y="113.39285"
         style="font-style:normal;font-variant:normal;font-weight:bold;font-stretch:normal;font-size:127px;font-family:Georgia;-inkscape-font-specification:'Georgia Bold';stroke:#0000ff;stroke-width:1;stroke-miterlimit:4;stroke-dasharray:none;stroke-opacity:1">S</tspan></text>
  </g>
  <g
     inkscape:groupmode="layer"
     id="layer3"
     inkscape:label="mouth">
    <path
       style="fill:#000000;stroke:#ffffff;stroke-width:2.5;stroke-linejoin:round"
       id="path851"
       d="m 147.4839,114.71376 c -4.86534,2.63378 -10.03232,4.64201 -15.19139,6.61393 -9.54794,3.71488 -19.71634,5.09209 -29.83174,6.21719 -8.771233,0.76072 -17.554019,1.38966 -26.348086,1.81377 -0.731856,-0.007 -2.925559,0.031 -2.195571,-0.0217 1.45424,-0.10506 2.926046,0.0518 4.371986,-0.13555 0.574019,-0.0744 -1.153295,-0.11102 -1.724004,-0.20757 -1.824871,-0.30871 -3.523366,-0.92479 -5.244431,-1.58088 -3.163996,-1.1577 -5.915533,-3.1189 -8.721534,-4.93368 -1.889376,-1.14347 -3.443891,-2.76954 -5.494187,-3.6366 -2.385658,-0.0342 -4.774398,-0.22847 -7.156973,-0.10252 -0.219851,0.0116 -0.332198,0.305 -0.427485,0.50347 -0.697328,1.45243 0.07107,3.32356 0.490368,4.70137 1.072682,3.10128 2.078268,6.26685 3.529706,9.21996 0.95041,1.93372 2.19865,3.9781 3.290152,5.83413 4.296423,5.80948 9.297199,11.07126 14.997337,15.51051 3.907808,2.80143 8.300442,4.89443 12.60802,7.0103 4.397642,2.35076 9.038047,4.0008 13.941928,4.85143 5.537534,0.77023 11.173424,0.65034 16.684974,-0.21588 2.23731,-0.67208 4.56988,-0.96897 6.82173,-1.55745 1.45625,-0.5045 2.8237,-1.07367 4.35902,-1.32968 1.56731,-0.21314 3.15206,-0.21837 4.7307,-0.22952 1.70986,0.0788 3.30316,-0.43733 4.78159,-1.25542 0,0 -6.62988,-0.72778 -6.62988,-0.72778 v 0 c -1.48563,0.71222 -3.07045,1.02134 -4.72041,0.94974 -1.59165,0.0214 -3.19194,0.0536 -4.76159,0.34657 -1.49725,0.32902 -2.86058,0.97511 -4.33779,1.36366 -2.23528,0.496 -4.46855,0.99351 -6.6978,1.51784 -1.17807,0.17539 -2.01084,0.31898 -3.2061,0.41495 -0.53635,0.0431 -2.14996,0.0576 -1.6123,0.0784 9.95901,0.38432 3.04447,-0.0428 0.9667,-0.26099 -4.953897,-0.74626 -9.67183,-2.27205 -14.10722,-4.63707 -4.237527,-2.14977 -8.527209,-4.27523 -12.484658,-6.90735 -5.826406,-4.23823 -11.047394,-9.29018 -15.132733,-15.25411 -1.385517,-2.324 -2.046414,-3.30906 -3.211221,-5.75804 -1.396154,-2.93537 -2.337803,-6.05493 -3.315396,-9.14531 -0.263242,-0.98518 -0.542724,-1.74746 -0.575749,-2.75396 -0.0057,-0.17282 0.02999,-0.93595 0.276119,-1.13953 0.09691,-0.0802 0.493585,-0.0796 0.367884,-0.0838 -2.030065,-0.0678 -4.061764,-0.0715 -6.092647,-0.10725 2.203709,0.50754 3.720428,2.34908 5.626539,3.45036 2.847649,1.82615 5.616051,3.85049 8.806066,5.05079 1.700676,0.70458 3.413297,1.39721 5.231458,1.74824 4.01655,0.77546 8.168333,0.36156 12.239762,0.38871 8.597369,-0.5161 17.185434,-1.18538 25.765216,-1.93692 10.22295,-1.17238 20.51829,-2.53434 30.16148,-6.32359 5.34986,-2.04581 10.69702,-4.11441 15.86191,-6.59947 0,0 -6.68975,-0.7437 -6.68975,-0.7437 z" />
  </g>
</svg>
